<svg width="281" height="110" viewBox="0 0 281 110" fill="none" xmlns="http://www.w3.org/2000/svg">
<path fill-rule="evenodd" clip-rule="evenodd" d="M210.324 62.0495C210.324 56.9282 211.168 52.2771 212.854 48.0964C214.646 43.8111 217.07 40.153 220.127 37.1219C223.184 34.0909 226.768 31.7393 230.879 30.067C235.095 28.3947 239.628 27.5585 244.476 27.5585C247.744 27.5585 250.643 27.9766 253.172 28.8127C255.808 29.5444 258.021 30.485 259.813 31.6347C261.71 32.6799 263.292 33.8819 264.556 35.2406C265.459 36.2099 267.447 35.5697 267.465 34.2456L267.711 16.0888C267.716 15.7044 267.832 15.3297 268.044 15.0095L277.334 1.02069C278.43 -0.629312 281 0.146412 281 2.12709V92.816C281 93.9206 280.105 94.816 279 94.816H269.402C268.298 94.816 267.402 93.9206 267.402 92.816V89.9559C267.402 89.3288 267.455 88.6494 267.561 87.9178C267.648 87.2277 266.83 86.8957 266.344 87.3936C265.613 88.1432 264.806 88.8928 263.924 89.6424C262.554 90.7921 260.92 91.8895 259.023 92.9347C257.125 93.9799 254.912 94.816 252.382 95.4431C249.958 96.0702 247.164 96.3838 244.002 96.3838C238.732 96.3838 233.988 95.4954 229.772 93.7186C225.661 91.8372 222.13 89.3811 219.179 86.35C216.333 83.2145 214.119 79.5564 212.538 75.3756C211.062 71.1949 210.324 66.7529 210.324 62.0495ZM223.922 61.8928C223.922 64.9238 224.449 67.7458 225.503 70.3587C226.663 72.9717 228.191 75.2188 230.088 77.1002C231.986 78.9815 234.252 80.497 236.887 81.6467C239.522 82.6919 242.421 83.2145 245.583 83.2145C248.745 83.2145 251.644 82.6919 254.279 81.6467C257.02 80.497 259.339 78.9815 261.236 77.1002C263.239 75.1143 264.767 72.8672 265.821 70.3587C266.875 67.7458 267.402 64.9238 267.402 61.8928C267.402 58.8617 266.875 56.092 265.821 53.5836C264.767 50.9706 263.239 48.7235 261.236 46.8421C259.339 44.9608 257.02 43.4976 254.279 42.4524C251.644 41.3027 248.745 40.7278 245.583 40.7278C242.421 40.7278 239.522 41.3027 236.887 42.4524C234.252 43.4976 231.986 44.9608 230.088 46.8421C228.191 48.7235 226.663 50.9706 225.503 53.5836C224.449 56.092 223.922 58.8617 223.922 61.8928Z" fill="white"/>
<path fill-rule="evenodd" clip-rule="evenodd" d="M100.21 85.6376C101.05 86.4447 101.029 87.801 100.107 88.5144C97.2868 90.6985 93.993 92.4855 90.2259 93.8754C85.6934 95.5477 81.0555 96.3838 76.3121 96.3838C71.4634 96.3838 66.8782 95.4954 62.5565 93.7186C58.3402 91.8372 54.6509 89.3811 51.4887 86.35C48.3265 83.2145 45.7967 79.5564 43.8994 75.3756C42.1075 71.1949 41.2115 66.7529 41.2115 62.0495C41.2115 57.3462 42.1075 52.9042 43.8994 48.7235C45.7967 44.5427 48.3265 40.8846 51.4887 37.7491C54.6509 34.6135 58.2875 32.1573 62.3984 30.3805C66.6147 28.4992 71.0945 27.5585 75.8378 27.5585C83.3217 27.5585 89.8043 29.8057 95.2854 34.3C100.385 38.3068 104.167 43.4893 106.631 49.8473C107.027 50.867 106.473 51.9931 105.445 52.3653C102.637 53.3815 99.5143 54.5715 96.076 55.9352C91.8597 57.6075 87.4853 59.3843 82.9528 61.2657L69.3552 66.5961C65.6192 68.0607 62.0981 69.4187 58.7918 70.6702C57.6788 71.0915 57.1676 72.3895 57.8048 73.3946C59.5007 76.0699 61.717 78.2981 64.4538 80.0789C67.9323 82.1693 71.7796 83.2145 75.9959 83.2145C78.8419 83.2145 81.6879 82.6919 84.5339 81.6467C86.7381 80.8661 88.6189 79.8815 90.1764 78.6929C91.0394 78.0343 92.2737 78.0139 93.0566 78.7659L100.21 85.6376ZM88.4076 49.3748C89.4765 48.9345 89.9705 47.6711 89.2956 46.7325C88.0704 45.0284 86.4305 43.7062 84.3758 42.7659C81.6352 41.4072 78.8419 40.7278 75.9959 40.7278C72.9391 40.7278 70.0931 41.3027 67.4579 42.4524C64.9281 43.6021 62.7146 45.1698 60.8173 47.1557C58.9199 49.037 57.3915 51.2319 56.232 53.7403C55.178 56.2488 54.6509 58.8095 54.6509 61.4224V62.4495C54.6509 62.4958 54.6728 62.5631 54.6923 62.6051C54.7799 62.7929 55.0165 62.9111 55.2101 62.8371C57.837 61.833 60.6547 60.7344 63.6633 59.5411C66.9309 58.1824 70.1458 56.8759 73.308 55.6217C76.4702 54.2629 79.5271 53.0087 82.4785 51.859C84.6216 50.9483 86.598 50.1202 88.4076 49.3748Z" fill="white"/>
<path d="M121.437 32.7322C117.626 35.8977 114.52 40.2107 112.118 45.6709C112.118 49.5094 112.115 53.4621 112.118 53.7403L112.424 92.9347V62.3631C112.424 59.2275 112.899 56.3533 113.847 53.7403C114.796 51.1274 116.166 48.8802 117.958 46.9989C119.75 45.1176 121.911 43.6543 124.441 42.6091C126.97 41.4594 129.816 40.8846 132.979 40.8846C137.406 41.0936 140.673 42.4001 142.782 44.804C144.995 47.1034 146.207 49.9254 146.418 53.27V92.816C146.418 93.9206 147.314 94.816 148.418 94.816H157.858C158.962 94.816 159.858 93.9206 159.858 92.816V62.3631C159.973 58.9248 163.887 59.2494 167.991 59.5897C171.372 59.87 174.881 60.161 176.5 58.3669C178.076 56.5743 177.799 52.9771 177.533 49.5094C177.193 45.092 176.869 40.8846 180.412 40.8846C185.05 41.0936 188.37 42.4001 190.373 44.804C192.481 47.1034 193.641 49.9254 193.851 53.27V92.816C193.851 93.9206 194.747 94.816 195.851 94.816H205.449C206.554 94.816 207.449 93.9206 207.449 92.816V47.1557C207.238 41.4072 205.13 36.7039 201.124 33.0457C197.224 29.3876 191.849 27.5585 184.997 27.5585C178.462 27.663 173.244 29.2831 169.344 32.4186C167.044 34.3196 164.956 36.624 163.082 39.3317C161.95 40.966 158.733 40.4862 157.868 38.6965C156.711 36.3009 155.055 34.2083 152.901 32.4186C149.001 29.1786 143.836 27.5585 137.406 27.5585C130.765 27.663 125.442 29.3876 121.437 32.7322Z" fill="white"/>
<path d="M27.2978 29.4399C26.1932 29.4399 25.2978 30.3353 25.2978 31.4399V41.3549H13.8583C12.7538 41.3549 11.8583 42.2504 11.8583 43.3549V92.816C11.8583 93.9206 12.7538 94.816 13.8583 94.816H23.2978C24.4023 94.816 25.2978 93.9206 25.2978 92.816V41.3549H41.0062C42.1108 41.3549 43.0062 40.4595 43.0062 39.3549V31.4399C43.0062 30.3353 42.1108 29.4399 41.0062 29.4399H27.2978Z" fill="white"/>
<path d="M203.064 108H204.254C204.45 108 204.548 107.902 204.548 107.706V103.464C204.548 102.755 204.87 102.4 205.514 102.4H205.948C206.247 102.4 206.457 102.465 206.578 102.596C206.709 102.717 206.774 102.927 206.774 103.226V107.706C206.774 107.902 206.872 108 207.068 108H208.244C208.449 108 208.552 107.902 208.552 107.706V103.478C208.552 102.759 208.874 102.4 209.518 102.4H209.868C210.167 102.4 210.377 102.465 210.498 102.596C210.619 102.717 210.68 102.927 210.68 103.226V107.706C210.68 107.902 210.778 108 210.974 108H212.164C212.36 108 212.458 107.902 212.458 107.706V103.142C212.458 102.405 212.271 101.84 211.898 101.448C211.534 101.056 210.993 100.86 210.274 100.86H209.868C209.003 100.86 207.438 100.887 206.573 100.861C206.543 100.86 206.511 100.86 206.48 100.86H206.088C205.743 100.86 205.435 100.93 205.164 101.07C204.91 101.206 204.727 101.382 204.614 101.597C204.608 101.609 204.596 101.616 204.583 101.616C204.563 101.616 204.548 101.601 204.548 101.581V101.154C204.548 100.958 204.45 100.86 204.254 100.86H203.064C202.868 100.86 202.77 100.958 202.77 101.154V107.706C202.77 107.902 202.868 108 203.064 108Z" fill="white"/>
<path fill-rule="evenodd" clip-rule="evenodd" d="M216.11 108H216.446C216.735 108 217.011 107.939 217.272 107.818C217.526 107.691 217.705 107.507 217.809 107.265C217.815 107.252 217.827 107.244 217.84 107.244C217.859 107.244 217.874 107.259 217.874 107.277V107.706C217.874 107.902 217.972 108 218.168 108H219.344C219.549 108 219.652 107.902 219.652 107.706V101.154C219.652 100.958 219.549 100.86 219.344 100.86H216.11C215.373 100.86 214.803 101.056 214.402 101.448C214.001 101.84 213.8 102.405 213.8 103.142V105.718C213.8 106.455 214.001 107.02 214.402 107.412C214.803 107.804 215.373 108 216.11 108ZM217.874 102.554V105.396C217.874 106.105 217.552 106.46 216.908 106.46H216.39C216.091 106.46 215.881 106.399 215.76 106.278C215.639 106.147 215.578 105.933 215.578 105.634V103.226C215.578 102.927 215.639 102.717 215.76 102.596C215.881 102.465 216.091 102.4 216.39 102.4H217.706C217.818 102.4 217.874 102.451 217.874 102.554Z" fill="white"/>
<path d="M221.256 98.438V99.656C221.256 99.8427 221.349 99.936 221.536 99.936H222.754C222.941 99.936 223.034 99.8427 223.034 99.656V98.424C223.034 98.2467 222.941 98.158 222.754 98.158H221.536C221.349 98.158 221.256 98.2513 221.256 98.438Z" fill="white"/>
<path d="M221.256 101.154V107.706C221.256 107.902 221.354 108 221.55 108H222.754C222.857 108 222.927 107.981 222.964 107.944C223.011 107.907 223.034 107.827 223.034 107.706V101.154C223.034 100.958 222.936 100.86 222.74 100.86H221.536C221.349 100.86 221.256 100.958 221.256 101.154Z" fill="white"/>
<path d="M224.687 108H227.347C228.812 108 229.545 107.375 229.545 106.124C229.545 105.676 229.447 105.317 229.251 105.046C229.055 104.766 228.714 104.495 228.229 104.234L226.815 103.394C226.414 103.179 226.213 102.969 226.213 102.764V102.694C226.213 102.461 226.442 102.344 226.899 102.344H228.845C228.957 102.344 229.032 102.325 229.069 102.288C229.106 102.241 229.125 102.167 229.125 102.064V101.154C229.125 100.958 229.032 100.86 228.845 100.86H226.507C225.77 100.86 225.228 101.014 224.883 101.322C224.538 101.63 224.365 102.111 224.365 102.764C224.365 103.203 224.477 103.562 224.701 103.842C224.925 104.122 225.275 104.383 225.751 104.626L227.137 105.396C227.52 105.601 227.711 105.816 227.711 106.04V106.11C227.711 106.39 227.482 106.53 227.025 106.53H224.687C224.575 106.53 224.5 106.553 224.463 106.6C224.426 106.637 224.407 106.707 224.407 106.81V107.706C224.407 107.902 224.5 108 224.687 108Z" fill="white"/>
<path fill-rule="evenodd" clip-rule="evenodd" d="M236.822 107.594H235.912C235.315 107.594 234.839 107.417 234.484 107.062C234.139 106.707 233.966 106.227 233.966 105.62V102.848C233.966 102.232 234.139 101.747 234.484 101.392C234.839 101.037 235.319 100.86 235.926 100.86H238.894C238.997 100.86 239.048 100.916 239.048 101.028V107.972C239.048 108.588 238.871 109.073 238.516 109.428C238.161 109.783 237.681 109.96 237.074 109.96H234.526C234.423 109.96 234.372 109.909 234.372 109.806V109.47C234.372 109.377 234.423 109.33 234.526 109.33H237.018C237.447 109.33 237.774 109.209 237.998 108.966C238.222 108.733 238.334 108.392 238.334 107.944V106.9C238.334 106.881 238.319 106.866 238.3 106.866C238.286 106.866 238.274 106.874 238.268 106.885C238.032 107.358 237.549 107.594 236.822 107.594ZM238.334 105.592V101.616C238.334 101.532 238.292 101.49 238.208 101.49H235.996C235.567 101.49 235.235 101.611 235.002 101.854C234.778 102.087 234.666 102.428 234.666 102.876V105.592C234.666 106.031 234.778 106.371 235.002 106.614C235.235 106.847 235.567 106.964 235.996 106.964H236.892C237.34 106.964 237.69 106.847 237.942 106.614C238.203 106.371 238.334 106.031 238.334 105.592Z" fill="white"/>
<path fill-rule="evenodd" clip-rule="evenodd" d="M244.156 108H242.952C242.345 108 241.865 107.823 241.51 107.468C241.165 107.113 240.992 106.628 240.992 106.012V102.848C240.992 102.232 241.165 101.747 241.51 101.392C241.865 101.037 242.345 100.86 242.952 100.86H244.156C244.763 100.86 245.243 101.037 245.598 101.392C245.953 101.747 246.13 102.232 246.13 102.848V106.012C246.13 106.628 245.953 107.113 245.598 107.468C245.243 107.823 244.763 108 244.156 108ZM243.008 107.37H244.1C244.529 107.37 244.856 107.253 245.08 107.02C245.313 106.777 245.43 106.437 245.43 105.998V102.862C245.43 102.423 245.313 102.087 245.08 101.854C244.856 101.611 244.529 101.49 244.1 101.49H243.008C242.579 101.49 242.252 101.611 242.028 101.854C241.804 102.087 241.692 102.423 241.692 102.862V105.998C241.692 106.437 241.804 106.777 242.028 107.02C242.252 107.253 242.579 107.37 243.008 107.37Z" fill="white"/>
<path d="M250.863 108H249.939C249.342 108 248.871 107.823 248.525 107.468C248.18 107.113 248.007 106.628 248.007 106.012V101.028C248.007 100.916 248.054 100.86 248.147 100.86H248.553C248.656 100.86 248.707 100.916 248.707 101.028V105.984C248.707 106.423 248.819 106.763 249.043 107.006C249.267 107.249 249.594 107.37 250.023 107.37H250.933C251.381 107.37 251.731 107.253 251.983 107.02C252.245 106.777 252.375 106.437 252.375 105.998V101.028C252.375 100.916 252.427 100.86 252.529 100.86H252.935C253.029 100.86 253.075 100.916 253.075 101.028V107.832C253.075 107.944 253.029 108 252.935 108H252.529C252.427 108 252.375 107.944 252.375 107.832V107.307C252.375 107.288 252.36 107.272 252.341 107.272C252.328 107.272 252.316 107.28 252.31 107.291C252.064 107.764 251.582 108 250.863 108Z" fill="white"/>
<path d="M255.719 108H255.313C255.22 108 255.173 107.944 255.173 107.832V101.028C255.173 100.916 255.22 100.86 255.313 100.86H255.719C255.822 100.86 255.873 100.916 255.873 101.028V101.581C255.873 101.6 255.889 101.616 255.908 101.616C255.921 101.616 255.933 101.609 255.939 101.597C256.043 101.409 256.222 101.243 256.475 101.098C256.736 100.939 257.058 100.86 257.441 100.86H257.987C258.09 100.86 258.141 100.911 258.141 101.014V101.35C258.141 101.453 258.09 101.499 257.987 101.49H257.329C256.872 101.49 256.512 101.63 256.251 101.91C255.999 102.19 255.873 102.568 255.873 103.044V107.832C255.873 107.944 255.822 108 255.719 108Z" fill="white"/>
<path d="M260.108 108H259.702C259.608 108 259.562 107.944 259.562 107.832V101.028C259.562 100.916 259.608 100.86 259.702 100.86H260.108C260.21 100.86 260.262 100.916 260.262 101.028V101.553C260.262 101.572 260.278 101.588 260.297 101.588C260.31 101.588 260.322 101.581 260.328 101.57C260.601 101.097 261.092 100.86 261.802 100.86H262.376C262.771 100.86 263.108 100.936 263.386 101.087C263.745 101.282 264.428 101.286 264.798 101.112C265.134 100.944 265.479 100.86 265.834 100.86H266.352C266.958 100.86 267.434 101.037 267.78 101.392C268.125 101.747 268.298 102.232 268.298 102.848V107.832C268.298 107.944 268.246 108 268.144 108H267.738C267.635 108 267.584 107.944 267.584 107.832V102.876C267.584 102.428 267.472 102.087 267.248 101.854C267.024 101.611 266.697 101.49 266.268 101.49H265.75C265.302 101.49 264.947 101.621 264.686 101.882C264.424 102.134 264.294 102.479 264.294 102.918V107.832C264.294 107.944 264.242 108 264.14 108H263.734C263.631 108 263.58 107.944 263.58 107.832V102.876C263.58 102.428 263.468 102.087 263.244 101.854C263.02 101.611 262.693 101.49 262.264 101.49H261.704C261.256 101.49 260.901 101.611 260.64 101.854C260.388 102.087 260.262 102.423 260.262 102.862V107.832C260.262 107.944 260.21 108 260.108 108Z" fill="white"/>
<path fill-rule="evenodd" clip-rule="evenodd" d="M275.067 108H272.141C271.535 108 271.054 107.823 270.699 107.468C270.354 107.113 270.181 106.628 270.181 106.012V102.848C270.181 102.232 270.354 101.747 270.699 101.392C271.054 101.037 271.535 100.86 272.141 100.86H273.345C273.952 100.86 274.433 101.037 274.787 101.392C275.142 101.747 275.319 102.232 275.319 102.848V104.626C275.319 104.738 275.263 104.794 275.151 104.794H271.007C270.923 104.794 270.881 104.836 270.881 104.92V105.998C270.881 106.437 270.993 106.777 271.217 107.02C271.441 107.253 271.768 107.37 272.197 107.37H275.067C275.17 107.37 275.221 107.421 275.221 107.524V107.846C275.221 107.949 275.17 108 275.067 108ZM271.007 104.234H274.493C274.577 104.234 274.619 104.192 274.619 104.108V102.862C274.619 102.423 274.507 102.087 274.283 101.854C274.059 101.611 273.733 101.49 273.303 101.49H272.197C271.768 101.49 271.441 101.611 271.217 101.854C270.993 102.087 270.881 102.423 270.881 102.862V104.108C270.881 104.192 270.923 104.234 271.007 104.234Z" fill="white"/>
<path d="M277.52 101.49H276.666C276.563 101.49 276.512 101.443 276.512 101.35V101.014C276.512 100.911 276.563 100.86 276.666 100.86H277.52C277.604 100.86 277.646 100.818 277.646 100.734V99.6C277.646 99.488 277.697 99.432 277.8 99.432H278.206C278.309 99.432 278.36 99.488 278.36 99.6V100.734C278.36 100.818 278.402 100.86 278.486 100.86H280.152C280.255 100.86 280.306 100.911 280.306 101.014V101.35C280.306 101.443 280.255 101.49 280.152 101.49H278.486C278.402 101.49 278.36 101.532 278.36 101.616V106.026C278.36 106.455 278.481 106.787 278.724 107.02C278.967 107.253 279.307 107.37 279.746 107.37H280.292C280.395 107.37 280.446 107.421 280.446 107.524V107.846C280.446 107.949 280.395 108 280.292 108H279.69C279.074 108 278.579 107.827 278.206 107.482C277.833 107.137 277.646 106.661 277.646 106.054V101.616C277.646 101.532 277.604 101.49 277.52 101.49Z" fill="white"/>
<path d="M24 18C24 16.8954 23.1046 16 22 16H16C14.8954 16 14 16.8954 14 18V28C14 29.1046 13.1046 30 12 30H2C0.895431 30 0 30.8954 0 32V38C0 39.1046 0.895431 40 2 40H22C23.1046 40 24 39.1046 24 38V18Z" fill="white"/>
</svg>
